<svg width="32" height="32" viewBox="0 0 32 32" fill="none" xmlns="http://www.w3.org/2000/svg">
<!-- <path d="M16 32C24.8366 32 32 24.8366 32 16C32 7.16344 24.8366 0 16 0C7.16344 0 0 7.16344 0 16C0 24.8366 7.16344 32 16 32Z" fill="white"/> -->
<path id="stroke" fill-rule="evenodd" clip-rule="evenodd" d="M18.2378 31.8447C17.5066 31.9471 16.7595 32 16 32C15.2405 32 14.4934 31.9471 13.7622 31.8447L13.9008 30.8544C14.5863 30.9503 15.287 31 16 31C16.713 31 17.4137 30.9503 18.0992 30.8544L18.2378 31.8447ZM12.0025 31.4966L12.2516 30.5281C10.8743 30.1738 9.57339 29.6288 8.3785 28.9224L7.86962 29.7832C9.14427 30.5367 10.5325 31.1185 12.0025 31.4966ZM6.37856 28.785L6.98047 27.9865C5.8586 27.1409 4.85912 26.1414 4.01352 25.0195L3.21496 25.6214C4.11663 26.8177 5.1823 27.8834 6.37856 28.785ZM2.21676 24.1304L3.07759 23.6215C2.37124 22.4266 1.82616 21.1257 1.47191 19.7484L0.503433 19.9975C0.881524 21.4675 1.46325 22.8557 2.21676 24.1304ZM0.155253 18.2378L1.1456 18.0992C1.04967 17.4137 1 16.713 1 16C1 15.287 1.04967 14.5863 1.1456 13.9008L0.155253 13.7622C0.0529127 14.4934 0 15.2405 0 16C0 16.7595 0.0529127 17.5066 0.155253 18.2378ZM0.503433 12.0025L1.47191 12.2516C1.82616 10.8743 2.37124 9.57339 3.07759 8.3785L2.21676 7.86962C1.46325 9.14427 0.881524 10.5325 0.503433 12.0025ZM3.21496 6.37856L4.01352 6.98047C4.85912 5.8586 5.8586 4.85912 6.98047 4.01352L6.37856 3.21496C5.1823 4.11663 4.11663 5.1823 3.21496 6.37856ZM7.86962 2.21676L8.3785 3.07759C9.57339 2.37124 10.8743 1.82616 12.2516 1.47191L12.0025 0.503433C10.5325 0.881524 9.14427 1.46325 7.86962 2.21676ZM13.7622 0.155253C14.4934 0.0529127 15.2405 0 16 0C16.7595 0 17.5066 0.0529128 18.2378 0.155253L18.0992 1.1456C17.4137 1.04967 16.713 1 16 1C15.287 1 14.5863 1.04967 13.9008 1.1456L13.7622 0.155253ZM19.9975 0.503433L19.7484 1.47191C21.1257 1.82616 22.4266 2.37124 23.6215 3.07759L24.1304 2.21676C22.8557 1.46325 21.4675 0.881524 19.9975 0.503433ZM25.6214 3.21496L25.0195 4.01352C26.1414 4.85912 27.1409 5.8586 27.9865 6.98047L28.785 6.37856C27.8834 5.1823 26.8177 4.11663 25.6214 3.21496ZM29.7832 7.86962L28.9224 8.3785C29.6288 9.57339 30.1738 10.8743 30.5281 12.2516L31.4966 12.0025C31.1185 10.5325 30.5367 9.14427 29.7832 7.86962ZM31.8447 13.7622L30.8544 13.9008C30.9503 14.5863 31 15.287 31 16C31 16.713 30.9503 17.4137 30.8544 18.0992L31.8447 18.2378C31.9471 17.5066 32 16.7595 32 16C32 15.2405 31.9471 14.4934 31.8447 13.7622ZM31.4966 19.9975L30.5281 19.7484C30.1738 21.1257 29.6288 22.4266 28.9224 23.6215L29.7832 24.1304C30.5367 22.8557 31.1185 21.4675 31.4966 19.9975ZM28.785 25.6214L27.9865 25.0195C27.1409 26.1414 26.1414 27.1409 25.0195 27.9865L25.6214 28.785C26.8177 27.8834 27.8834 26.8177 28.785 25.6214ZM24.1304 29.7832L23.6215 28.9224C22.4266 29.6288 21.1257 30.1738 19.7484 30.5281L19.9975 31.4966C21.4675 31.1185 22.8557 30.5367 24.1304 29.7832Z" fill="#20BF61" fill-opacity="0.4"/>
</svg>
